<svg xmlns="http://www.w3.org/2000/svg" width="32" height="32" viewBox="0 0 32 32" fill="none">
    <rect width="32" height="32" fill="white" />
    <g clip-path="url(#clip0_512_3350)">
        <path
            d="M15.5 31C24.0604 31 31 24.0604 31 15.5C31 6.93959 24.0604 0 15.5 0C6.93959 0 0 6.93959 0 15.5C0 24.0604 6.93959 31 15.5 31Z"
            fill="#EFEFEF" />
        <path
            d="M21.2838 7.90875C20.5095 7.63119 19.7156 7.41135 18.9089 7.25104C18.0277 7.0949 17.1338 7.02202 16.239 7.03337C15.1604 7.03092 14.0892 7.21082 13.0706 7.56546C12.0441 7.9253 11.1032 8.49377 10.3072 9.23508C9.44759 10.0453 8.77918 11.0367 8.35042 12.1374C7.83931 13.4885 7.59476 14.9259 7.6303 16.37C7.58201 17.8196 7.89772 19.2581 8.54859 20.5542C9.14233 21.6645 10.073 22.5578 11.2067 23.1055C12.5175 23.7103 13.9502 24.0043 15.3933 23.9645C16.5501 23.9823 17.7042 23.8483 18.8262 23.5658C19.8135 23.2985 20.7704 22.9296 21.6817 22.4649V19.2724C20.7646 19.7602 19.7965 20.1453 18.795 20.4208C17.7419 20.7277 16.6509 20.8853 15.554 20.8889C14.5473 20.9466 13.5442 20.7266 12.654 20.2531C11.9422 19.8387 11.3823 19.2066 11.0569 18.45C10.7099 17.6152 10.5394 16.7176 10.556 15.8137C10.5288 14.7647 10.7251 13.7219 11.1318 12.7546C11.5017 11.9212 12.1356 11.2327 12.9357 10.7955C13.9162 10.3008 15.0067 10.0644 16.104 10.1089C17.1071 10.0914 18.1083 10.2012 19.0836 10.4358C19.8293 10.6271 20.564 10.8586 21.2846 11.1294L21.2838 7.90875Z"
            fill="black" />
    </g>
    <defs>
        <clipPath id="clip0_512_3350">
            <rect width="31" height="31" fill="white" />
        </clipPath>
    </defs>
</svg>