<svg xmlns="http://www.w3.org/2000/svg" viewBox="0 0 363.68 48.26"><defs><style>.cls-1{fill:#2d3233;}</style></defs><g id="Layer_2" data-name="Layer 2"><g id="Layer_1-2" data-name="Layer 1"><rect class="cls-1" x="33.98" y="8.97" width="6.09" height="30.31" rx="0.08"/><path class="cls-1" d="M74.81,9h-21a.09.09,0,0,0-.08.08V39.21a.09.09,0,0,0,.08.08h5.94a.08.08,0,0,0,.07-.08v-12H69.84a.11.11,0,0,0,.1-.08l1.51-5.89a.1.1,0,0,0-.1-.13H59.78v-6H73.17a.13.13,0,0,0,.11-.08l1.63-5.88A.11.11,0,0,0,74.81,9Z"/><path class="cls-1" d="M143.27,9h-6.85l-.09,0-5.82,9.36L124.69,9l-.09,0h-6.84a.1.1,0,0,0-.09.16l9.73,15.64s0,0,.06,0v.07h0V39.21a.09.09,0,0,0,.08.08h5.94a.09.09,0,0,0,.08-.08V24.8s.05,0,.06,0l9.73-15.64A.1.1,0,0,0,143.27,9Z"/><path class="cls-1" d="M99.91,9H86.08a.11.11,0,0,0-.1.08l-1.63,5.88.1.14H93.9V39.21a.08.08,0,0,0,.07.08h5.94a.09.09,0,0,0,.08-.08V15.07h7.46a.11.11,0,0,0,.1-.08l1.62-5.88-.1-.14Z"/><path class="cls-1" d="M21,9H.08A.08.08,0,0,0,0,9.05V39.21a.08.08,0,0,0,.08.08H6a.08.08,0,0,0,.07-.08v-12H16.15a.11.11,0,0,0,.1-.08l1.51-5.89a.12.12,0,0,0-.11-.13H6.09v-6H19.48a.11.11,0,0,0,.1-.08L21.06,9.1A.1.1,0,0,0,21,9Z"/><path class="cls-1" d="M186.57,19.06l-.63,2.28c3.79,1.6,6.24,6.09,6.24,10.46,0,5.81-5.07,11.62-10.89,11.62a11.35,11.35,0,0,1-1.44-.1l-.48,1.94a12.88,12.88,0,0,0,1.55.18h1.43a13.66,13.66,0,0,0,4.22-26.38Z"/><path class="cls-1" d="M183,21.34l.3-1.08.53-1.94.74-2.71,1.87-6.78.35-1.29,1.3-4.72L188.91,0h-6.16L182,2.82H169.41v9.33a9.28,9.28,0,0,0,2.52,6.36,9.2,9.2,0,0,0,2.3,1.81,9.37,9.37,0,0,0,2.67,1l-.35,1.26L174,31.8l-1.47,5.34a10.45,10.45,0,0,1-1.46-5.34h-5.91A16.42,16.42,0,0,0,170.64,44l-.38,1.4-.78,2.82h6.16l.28-1,.49-1.8.26-.92.82-3,2.67-9.7Zm-7.63-9.14V8.83h4.91l-.09.33-1.76,6.4h0A3.38,3.38,0,0,1,175.41,12.2Z"/><path class="cls-1" d="M241.83,16.16c0,.41-.15.61-.44.61s-.5-.37-.61-1.11A7.77,7.77,0,0,0,238.63,11a5.7,5.7,0,0,0-3.24-1.16c-.53,0-1.69-.09-3.5-.09-1.35,0-2.95.05-4.82.14V22.77c3.74,0,6-.21,6.92-.72s1.4-1.95,1.58-4.31c.05-.67.23-1,.52-1s.44.22.44.66a5.49,5.49,0,0,1,0,.65c-.09,2-.14,3.89-.14,5.61,0,2.22.05,4,.14,5.26a2.26,2.26,0,0,1,0,.52c0,.35-.15.53-.44.53a.39.39,0,0,1-.43-.27,18.77,18.77,0,0,1-.31-2c-.23-1.78-.69-2.89-1.37-3.33a8.41,8.41,0,0,0-4.08-.66c-1.07,0-2,0-2.83.09v13a1.52,1.52,0,0,0,1,1.62,7.42,7.42,0,0,0,2.13.14c.46,0,.69.11.69.35s-.29.39-.88.39H220c-.56,0-.84-.12-.84-.35s.51-.38,1.52-.44,1.59-.2,1.77-.42a4.49,4.49,0,0,0,.26-2V10.86c0-.52-.18-.85-.46-1A7.55,7.55,0,0,0,220,9.63c-.47,0-.71-.14-.71-.43s.26-.4.79-.4h12a88.39,88.39,0,0,0,9.07-.26c0,.38.11,1.47.26,3.28.09,1.23.21,2.32.35,3.29A7.42,7.42,0,0,1,241.83,16.16Z"/><path class="cls-1" d="M262.33,38.91c0,.25-.18.38-.53.38h-.44a53.47,53.47,0,0,0-6-.14q-1.09,0-2.19.09c-.38,0-1,0-1.75,0-.38,0-.57-.14-.57-.4s.37-.36,1.13-.39c1.17,0,1.86-.17,2.06-.42a5.51,5.51,0,0,0,.31-2.53V12.45a6.4,6.4,0,0,0-.22-2.42c-.18-.29-1-.47-2.44-.53-.56,0-.84-.13-.84-.31s.17-.35.53-.35h5.95l2.56.05,1.68-.05c.47,0,.71.13.71.38s-.65.36-1.95.41c-.74,0-1.19.16-1.36.4a4.1,4.1,0,0,0-.24,1.84V35.26A7.56,7.56,0,0,0,259,38q.48.48,2.85.57C262.17,38.54,262.33,38.67,262.33,38.91Z"/><path class="cls-1" d="M295.13,16.16c0,.41-.14.61-.43.61s-.5-.37-.62-1.11A7.76,7.76,0,0,0,291.94,11a5.74,5.74,0,0,0-3.25-1.16c-.52,0-1.69-.09-3.5-.09-1.34,0-2.95.05-4.82.14V22.77q5.61,0,6.92-.72c.88-.51,1.4-1.95,1.58-4.31.06-.67.23-1,.53-1s.43.22.43.66a4,4,0,0,1,0,.65c-.09,2-.13,3.89-.13,5.61,0,2.22,0,4,.14,5.26a3.27,3.27,0,0,1,0,.52c0,.35-.14.53-.43.53a.41.41,0,0,1-.44-.27,17.37,17.37,0,0,1-.3-2c-.24-1.78-.69-2.89-1.38-3.33a8.39,8.39,0,0,0-4.07-.66c-1.08,0-2,0-2.84.09v13a1.51,1.51,0,0,0,1,1.62,7.34,7.34,0,0,0,2.12.14c.46,0,.69.11.69.35s-.29.39-.87.39h-10c-.55,0-.83-.12-.83-.35s.5-.38,1.51-.44,1.6-.2,1.77-.42a4.29,4.29,0,0,0,.27-2V10.86c0-.52-.19-.85-.47-1a7.47,7.47,0,0,0-2.28-.25c-.48,0-.71-.14-.71-.43s.26-.4.78-.4h12a88.28,88.28,0,0,0,9.06-.26c0,.38.12,1.47.27,3.28.08,1.23.2,2.32.35,3.29A9,9,0,0,1,295.13,16.16Z"/><path class="cls-1" d="M328,16.69c0,.38-.18.56-.53.56s-.6-.37-.74-1.13l-.18-1.58a7.66,7.66,0,0,0-1-2.67,4.31,4.31,0,0,0-3-1.84,9.12,9.12,0,0,0-2.19-.22l-2.49.09V36.35c0,1,.27,1.71.83,2a7.85,7.85,0,0,0,2.45.27c.35,0,.53.15.53.37s-.24.37-.7.37a3.79,3.79,0,0,1-.62,0q-2.62-.09-3.72-.09c-1,0-1.87,0-2.72.06s-1.92.07-3.24.07c-.67,0-1-.12-1-.35s.62-.41,1.88-.44c.9,0,1.49-.19,1.75-.57a4.24,4.24,0,0,0,.22-1.8V9.9a22.07,22.07,0,0,0-5.39.43c-1.84.68-2.92,2.47-3.24,5.39-.09.88-.29,1.32-.61,1.32s-.53-.31-.53-.92c0-.32,0-.65.05-1l.08-1c.09-1.34.22-3.11.4-5.3h2l8.93.14c1.06,0,2.69,0,4.91,0l7.27-.14c.06,1.64.25,4.06.57,7.28a1.45,1.45,0,0,0,0,.32A2.45,2.45,0,0,1,328,16.69Z"/><path class="cls-1" d="M363.68,9.17c0,.22-.25.33-.74.33-1.61,0-2.6.31-3,.84q-.52.5-3.77,7.53c-1,2.07-1.87,3.9-2.71,5.47a11.23,11.23,0,0,0-1,2.22,15.07,15.07,0,0,0-.13,2.57v8.3c0,1,.12,1.54.37,1.72a7.83,7.83,0,0,0,2.6.39c.79.06,1.19.19,1.19.42s-.21.33-.61.33h-.53l-6.13-.14c-1.73,0-3.14,0-4.25.09a3.67,3.67,0,0,1-.61,0c-.41,0-.62-.14-.62-.42s.34-.43,1-.46a6.67,6.67,0,0,0,2.85-.44c.29-.23.43-.93.43-2.09V26.67c-.29-.64-1.13-2.35-2.54-5.12l-4.38-8.68c-.43-.84-1-1.79-1.57-2.84a3.35,3.35,0,0,0-2.08-.44c-1.07,0-1.6-.16-1.6-.48s.23-.35.7-.35,1.84,0,3.68.08c1.05,0,1.81.05,2.28.05l5.08-.07a3.58,3.58,0,0,1,.7-.06c.52,0,.79.14.79.44s-.5.39-1.49.39c-1.81,0-2.72.33-2.72,1s.92,2.52,2.76,6l4,7.53q1.08-1.95,2.48-4.83l2.59-5.21a11.34,11.34,0,0,0,1.46-3.7c0-.38-.25-.6-.74-.66a11.14,11.14,0,0,0-2.06-.18c-.64,0-1-.12-1-.44s.27-.35.83-.35h4C362.19,8.67,363.68,8.81,363.68,9.17Z"/></g></g></svg>