<svg xmlns="http://www.w3.org/2000/svg" width="102.681" height="102.682" viewBox="0 0 102.681 102.682"><path d="M52.191,103.532c-.51,0-1.018-.009-1.526-.024L61.157,74.672H75.6a7.079,7.079,0,0,0,6.183-4.329L93.163,39.076c1.863-5.119-1.07-9.307-6.517-9.307H66.614L49.807,75.956H49.8l-9.529,26.182A51.354,51.354,0,0,1,38.329,2.745L28.5,29.769h0L12.15,74.672H23.03l13.9-38.156h8.178l-13.9,38.156,10.877,0,12.954-35.6c1.863-5.119-1.069-9.307-6.511-9.307H39.381L49.883.9C50.648.87,51.417.85,52.19.85a51.341,51.341,0,0,1,0,102.682ZM83.255,36.489H75.08L63.631,67.9h8.176Z" transform="translate(-0.85 -0.85)" fill="#0096d6"/></svg>