<svg xmlns="http://www.w3.org/2000/svg" viewBox="0 0 1000 300"><path d="M167.12,73.27c-.5.23-1.25.46-1.72.68a48.52,48.52,0,0,1-11.23,3.73c-8.12,1.67-15.06,1-21-3.72-.27-.23-.55-.45-.82-.69H119.82l-3.15,5.45V278.2h50.48V73.27Z"/><path d="M302.56,105.67q-6.35-16.4-19.44-24.4t-34.06-8h-64V278.2h64q21,0,34.06-8.42t19.44-24.4q6.36-16,6.35-40.82V146.91Q308.91,122.09,302.56,105.67Zm-43.85,108q0,8-1.65,12.69a13.62,13.62,0,0,1-4.83,6.9,14.48,14.48,0,0,1-8.41,2.2h-8.28V116h8a14.62,14.62,0,0,1,8.41,2.34,13.74,13.74,0,0,1,5.11,6.9,37,37,0,0,1,1.65,12.27Z"/><path d="M439.92,101a48.87,48.87,0,0,0-20.41-23.72q-13.8-8.14-34.48-8.14T350.42,77q-13.94,7.86-20.69,23.58T323,140v71.43q0,23.16,6.9,39t20.69,23.72q13.79,7.86,34.75,7.86,20.13,0,33.92-7.86t20.55-23.59q6.75-15.72,6.76-39.16V140Q446.54,116.57,439.92,101ZM396.61,219.45a40.64,40.64,0,0,1-1.09,10.21,10.52,10.52,0,0,1-4.14,6.2,11.12,11.12,0,0,1-6.35,2.07,10.71,10.71,0,0,1-6.62-2.07,11.66,11.66,0,0,1-4-6.2,36,36,0,0,1-1.24-10.21V132a35.53,35.53,0,0,1,1.24-10.33,11.6,11.6,0,0,1,4-6.07,11.11,11.11,0,0,1,6.9-2.07,10.38,10.38,0,0,1,6.2,2.07,10.68,10.68,0,0,1,4,6.2,40.55,40.55,0,0,1,1.09,10.2Z"/><path d="M513.28,232.41V73.27H462.81V278.2h95.7V232.41Z"/><path d="M693.52,268.13a89.85,89.85,0,0,1-1-13.38l-.83-24.82a90.41,90.41,0,0,0-2.62-21,34.14,34.14,0,0,0-7.86-14.76,26.65,26.65,0,0,0-13.51-7.86v-.28q13-4.12,19.16-15.3t6.21-27.72V125.12q0-25.37-15.17-38.61T633,73.27h-62.6V278.2h50.47V207.59h5.79a19,19,0,0,1,8.55,1.79,9.89,9.89,0,0,1,5,5.24,29.42,29.42,0,0,1,1.66,9.24l.83,22.34q.83,10.49,1.37,18.76A69.15,69.15,0,0,0,646,278.2h50.2A38.27,38.27,0,0,1,693.52,268.13Zm-50-116.8c0,7.16-1.3,12.13-3.86,14.89s-6.08,4.13-10.49,4.13h-8.27V114.64h8.82c4.42,0,7.81,1.38,10.2,4.14s3.6,7.36,3.6,13.79Z"/><path d="M820.81,101A48.92,48.92,0,0,0,800.4,77.27q-13.8-8.14-34.48-8.14T731.3,77q-13.92,7.86-20.68,23.58T703.86,140v71.43q0,23.16,6.9,39t20.69,23.72q13.78,7.86,34.74,7.86,20.13,0,33.93-7.86t20.55-23.59q6.75-15.72,6.75-39.16V140Q827.42,116.57,820.81,101ZM777.5,219.45a40.59,40.59,0,0,1-1.1,10.21,10.51,10.51,0,0,1-4.13,6.2,11.12,11.12,0,0,1-6.35,2.07,10.71,10.71,0,0,1-6.62-2.07,11.66,11.66,0,0,1-4-6.2,36.33,36.33,0,0,1-1.24-10.21V132a35.88,35.88,0,0,1,1.24-10.33,11.6,11.6,0,0,1,4-6.07,11.1,11.1,0,0,1,6.89-2.07,10.39,10.39,0,0,1,6.21,2.07,10.67,10.67,0,0,1,4,6.2,40.51,40.51,0,0,1,1.1,10.2Z"/><path d="M915.68,191.87v27.58a36.85,36.85,0,0,1-1.24,10.62,11,11,0,0,1-4,5.93,11.83,11.83,0,0,1-6.91,1.93A10.06,10.06,0,0,1,897.2,236a11.68,11.68,0,0,1-3.72-5.93,39.3,39.3,0,0,1-1.24-11.17V132a34.21,34.21,0,0,1,1.24-10.2,12.9,12.9,0,0,1,3.86-6.07,10.2,10.2,0,0,1,6.76-2.2,10.05,10.05,0,0,1,6.89,2.2,11.64,11.64,0,0,1,3.45,6.07,42.38,42.38,0,0,1,1,9.94V156h50.2V139.19q0-22.89-6.34-38.62T939.13,77q-13.8-7.86-35.31-7.86-20.67,0-34.47,7.86T848.8,100.57Q842,116.31,842,140.29v71.16q0,23.45,7,39.3t20.69,23.59q13.65,7.71,34.06,7.72,22.33,0,35.85-7.59t19.87-23q6.35-15.44,6.34-38.61v-21Z"/><path d="M116.67,261.12a86.85,86.85,0,0,1-21.92,14.13c-8.14,3.53-15.33,2.45-18.37,2.19-6.92-.58-10.49-5.08-11.58-11.48a25.63,25.63,0,0,1-.25-7c1.36-13.06,6-25.08,12.26-36.39,6.57-11.83,14-23.21,21-34.79a1.75,1.75,0,0,0,.82-1c2.06-4.1,4.56-7.93,7-11.83l1-1.54q5-8.35,10.12-16.69l9.13-15q1.82-3,3.65-6c.43-.12.28-.57.46-.83L151.7,98.81l14.65-24.23.8-1.31v0s0,0,0,0c-.5.23-1.25.46-1.72.68a48.52,48.52,0,0,1-11.23,3.73c-8.12,1.67-15.06,1-21-3.72-.27-.23-.55-.45-.82-.69A27.15,27.15,0,0,1,128.42,69a33.33,33.33,0,0,1-3.09-5.3s-2.06,3.55-5.51,9.53l-3.15,5.45c-16.09,27.92-50.75,88.14-70.23,122-7.29,12.69-12.31,27-12.32,40.8,0,8.83,2,20.07,9,27.4C51.71,278,61.77,283,74.27,284c5.58.46,14.93.06,22.75-4.21,7.46-4.09,14.35-10.33,19.65-15.57Z" fill="#ec1d25"/><path d="M131.89,52.26a29.15,29.15,0,0,1,3.8-13c6.32-11.49,15.38-19.66,28.4-22.85a20.33,20.33,0,0,1,9.18-.14c7.51,1.61,12.27,8.27,11.69,16.33-.74,10.12-5.63,18.21-12.68,25.13-6.44,6.33-13.94,10.73-23.14,11.55C139,70.22,131.85,63.58,131.89,52.26Z" fill="#ec1d25"/><path d="M957.07,71.13h-3v-.92h7.26v.92h-3v6.38h-1.17Z"/><path d="M962.36,70.21h1.47l3,4.89.1.24.11-.24,3-4.89h1.48v7.3h-1.14V71.6l-.11.22-2.78,4.55h-1l-2.8-4.55-.09-.22v5.91h-1.14Z"/></svg>