<svg width="60" height="59" viewBox="0 0 60 59" fill="none" xmlns="http://www.w3.org/2000/svg">
<path d="M24.7787 21.4629C24.7787 18.2793 26.0893 15.3975 28.1966 13.3228C27.061 12.8015 25.8023 12.5034 24.4698 12.5034C19.5215 12.5034 15.5099 16.5149 15.5099 21.4629C15.5099 26.4113 19.5215 30.4228 24.4698 30.4228C25.8023 30.4228 27.0606 30.1248 28.1966 29.6035C26.0893 27.5288 24.7787 24.6469 24.7787 21.4629Z" fill="#F53F1F"/>
<path d="M36.21 21.1542C33.0264 21.1542 30.1446 19.8436 28.0698 17.7351C27.5486 18.8718 27.2505 20.1305 27.2505 21.463C27.2505 26.4114 31.262 30.4229 36.21 30.4229C41.1584 30.4229 45.1699 26.4114 45.1699 21.463C45.1699 20.1305 44.8718 18.8722 44.3506 17.7351C42.2758 19.8436 39.394 21.1542 36.21 21.1542Z" fill="#F53F1F"/>
<path d="M36.21 0.762939C34.8775 0.762939 33.6192 1.06102 32.4821 1.5823C34.5906 3.65701 35.9012 6.53884 35.9012 9.72284C35.9012 12.9065 34.5906 15.7883 32.4821 17.863C33.6188 18.3843 34.8775 18.6824 36.21 18.6824C41.1584 18.6824 45.1699 14.6709 45.1699 9.72284C45.1699 4.77445 41.1584 0.762939 36.21 0.762939Z" fill="#F53F1F"/>
<path d="M24.4698 10.0322C27.6535 10.0322 30.5353 11.3428 32.61 13.4501C33.1313 12.3145 33.4294 11.0558 33.4294 9.72333C33.4294 4.77493 29.4179 0.763428 24.4698 0.763428C19.5215 0.763428 15.5099 4.77493 15.5099 9.72333C15.5099 11.0558 15.808 12.3141 16.3293 13.4501C18.404 11.3428 21.2859 10.0322 24.4698 10.0322Z" fill="#F53F1F"/>
<path d="M5.72927 38.7244V40.6605C5.72927 42.5036 4.769 43.0921 3.14274 43.0921H1.70234V45.2914C1.70234 45.6167 1.43904 45.7871 1.19123 45.7871C0.927926 45.7871 0.680115 45.6167 0.680115 45.2914V36.9743C0.680115 36.68 0.927926 36.4632 1.19123 36.4632H3.28214C4.13399 36.4632 5.72927 36.6335 5.72927 38.7244V38.7244ZM3.28214 37.5009H1.70234V42.0389H3.14274C3.90166 42.0389 4.72254 41.8531 4.70705 40.645L4.69156 38.7244C4.69156 38.3527 4.62961 37.5009 3.28214 37.5009V37.5009ZM8.78045 43.0456V39.2046C8.78045 37.346 9.74072 36.3547 11.5993 36.3547H12.002C13.8451 36.3547 14.8209 37.346 14.8209 39.2046V43.0456C14.8209 44.7494 13.6902 45.8645 12.002 45.8645H11.5993C9.88012 45.8645 8.78045 44.7339 8.78045 43.0456ZM11.5993 44.8268H12.002C13.1172 44.8268 13.7831 44.1298 13.7831 43.0456V39.2046C13.7831 37.9965 13.1946 37.377 12.002 37.377H11.5993C10.4222 37.377 9.7717 38.012 9.7717 39.2046V43.0456C9.7717 44.1763 10.4842 44.8268 11.5993 44.8268ZM23.6027 38.7244V40.6605C23.6027 42.5036 22.6424 43.0921 21.0161 43.0921H19.5757V45.2914C19.5757 45.6167 19.3124 45.7871 19.0646 45.7871C18.8013 45.7871 18.5535 45.6167 18.5535 45.2914V36.9743C18.5535 36.68 18.8013 36.4632 19.0646 36.4632H21.1555C22.0074 36.4632 23.6027 36.6335 23.6027 38.7244V38.7244ZM21.1555 37.5009H19.5757V42.0389H21.0161C21.7751 42.0389 22.5959 41.8531 22.5805 40.645L22.565 38.7244C22.565 38.3527 22.503 37.5009 21.1555 37.5009V37.5009ZM29.6276 36.4322C31.037 36.4322 32.5394 36.9743 32.5394 38.5696C32.5394 38.9413 32.2916 39.1116 32.0283 39.1116C31.765 39.1116 31.4862 38.9258 31.4862 38.5696C31.4862 38.4456 31.4087 37.4389 29.6276 37.4389C28.2182 37.4389 27.5986 37.9965 27.5986 39.3285V43.0611C27.5986 44.4086 28.3576 44.8268 29.6276 44.8268C30.9131 44.8268 31.6256 44.3002 31.6256 43.0456C31.6256 42.6894 31.8889 42.519 32.1367 42.519C32.4 42.519 32.6478 42.6894 32.6478 43.0456C32.6478 45.1366 31.4862 45.8335 29.6276 45.8335C27.6141 45.8335 26.5919 45.0901 26.5919 43.0611V39.3285C26.5919 37.1291 27.6916 36.4322 29.6276 36.4322V36.4322ZM36.1636 43.0456V39.2046C36.1636 37.346 37.1239 36.3547 38.9825 36.3547H39.3852C41.2283 36.3547 42.204 37.346 42.204 39.2046V43.0456C42.204 44.7494 41.0734 45.8645 39.3852 45.8645H38.9825C37.2633 45.8645 36.1636 44.7339 36.1636 43.0456ZM38.9825 44.8268H39.3852C40.5003 44.8268 41.1663 44.1298 41.1663 43.0456V39.2046C41.1663 37.9965 40.5778 37.377 39.3852 37.377H38.9825C37.8054 37.377 37.1549 38.012 37.1549 39.2046V43.0456C37.1549 44.1763 37.8673 44.8268 38.9825 44.8268ZM46.9589 43.0766V45.2914C46.9589 45.6322 46.6956 45.7871 46.4478 45.7871C46.1845 45.7871 45.9367 45.6322 45.9367 45.2914V36.9743C45.9367 36.6645 46.1071 36.4632 46.4478 36.4632H48.5387C49.1273 36.4632 50.9859 36.6335 50.9859 38.7244V40.6605C50.9859 41.8376 50.5522 42.581 49.5609 42.9063L50.6141 45.0281C50.831 45.4463 50.5057 45.7871 50.165 45.7871C49.9791 45.7871 49.7468 45.6632 49.6229 45.3999L48.4922 43.0766H46.9589V43.0766ZM49.9636 40.6605V38.7244C49.9636 38.3527 49.8242 37.5009 48.5387 37.5009H46.9589V42.0389H48.3993C49.1582 42.0389 49.9636 41.8685 49.9636 40.6605V40.6605ZM60 36.9588V45.2914C60 45.6167 59.7522 45.7871 59.5044 45.7871C59.3185 45.7871 59.0707 45.6477 58.9623 45.4463C57.8007 43.1696 56.9333 41.4194 55.7717 39.1271V45.2914C55.7717 45.6167 55.5239 45.7871 55.2606 45.7871C55.0128 45.7871 54.7495 45.6167 54.7495 45.2914V36.9588C54.7495 36.4167 55.5239 36.3857 55.6943 36.711L58.9623 43.1696V36.9588C58.9623 36.6335 59.2101 36.4632 59.4734 36.4632C59.7367 36.4632 60 36.6335 60 36.9588V36.9588Z" fill="#F48322"/>
<path d="M0.680115 55.9968V51.9979C0.680115 49.6085 1.99096 48.895 3.91574 48.895C5.50867 48.895 7.05182 49.708 7.05182 51.3839C7.05182 51.749 6.78633 51.9315 6.50425 51.9315C6.22217 51.9315 5.94009 51.749 5.94009 51.3839C5.94009 50.5377 5.01088 49.9735 3.91574 49.9735C2.40578 49.9735 1.77525 50.5875 1.77525 51.9979V55.9968C1.77525 57.4404 2.57171 57.8884 3.91574 57.8884C5.50867 57.8884 6.07283 57.1251 6.07283 55.6483V54.9514H4.57946C4.23101 54.9514 4.04849 54.6859 4.04849 54.4038C4.04849 54.1218 4.23101 53.8397 4.57946 53.8397H6.65358C6.98544 53.8397 7.16797 54.1715 7.16797 54.4038V55.6483C7.16797 58.0377 6.23876 58.9669 3.91574 58.9669C1.72547 58.9669 0.680115 58.1704 0.680115 55.9968V55.9968ZM12.1956 56.0134V58.3862C12.1956 58.7512 11.9136 58.9171 11.6481 58.9171C11.366 58.9171 11.1005 58.7512 11.1005 58.3862V49.4757C11.1005 49.1439 11.283 48.9282 11.6481 48.9282H13.8881C14.5187 48.9282 16.5098 49.1107 16.5098 51.3507V53.4249C16.5098 54.6859 16.0452 55.4824 14.9833 55.8308L16.1116 58.1041C16.3439 58.5521 15.9954 58.9171 15.6304 58.9171C15.4313 58.9171 15.1824 58.7844 15.0496 58.5023L13.8383 56.0134H12.1956V56.0134ZM15.4147 53.4249V51.3507C15.4147 50.9525 15.2653 50.0399 13.8881 50.0399H12.1956V54.9016H13.7388C14.5518 54.9016 15.4147 54.7191 15.4147 53.4249V53.4249ZM20.376 55.9802V51.8651C20.376 49.874 21.4047 48.812 23.3959 48.812H23.8273C25.8019 48.812 26.8472 49.874 26.8472 51.8651V55.9802C26.8472 57.8054 25.6359 59.0001 23.8273 59.0001H23.3959C21.5541 59.0001 20.376 57.7888 20.376 55.9802ZM23.3959 57.8884H23.8273C25.022 57.8884 25.7355 57.1417 25.7355 55.9802V51.8651C25.7355 50.5709 25.105 49.9071 23.8273 49.9071H23.3959C22.1348 49.9071 21.4379 50.5875 21.4379 51.8651V55.9802C21.4379 57.1915 22.2012 57.8884 23.3959 57.8884V57.8884ZM33.7499 56.8928L35.7411 51.6162L35.2433 49.6748C35.0276 48.8784 36.1393 48.6793 36.3218 49.3762L38.2798 56.5775L40.3871 49.3762C40.6028 48.6295 41.6979 48.9448 41.4822 49.6583L38.9103 58.4028C38.8108 58.718 38.5287 58.9171 38.2632 58.9171C37.9645 58.9171 37.699 58.7346 37.5995 58.4028L36.2389 53.4083C35.6083 55.0676 34.9446 56.76 34.3307 58.4193C34.2145 58.718 33.949 58.9171 33.7001 58.9171C33.4512 58.9171 33.2023 58.7512 33.0862 58.3862L30.4479 49.6583C30.2322 48.9448 31.2444 48.7125 31.4601 49.343L33.7499 56.8928ZM45.0331 48.9282H50.0442C50.3927 48.9282 50.5586 49.2102 50.5586 49.4923C50.5586 49.7744 50.3927 50.0399 50.0442 50.0399H48.1526V58.3862C48.1526 58.7346 47.8705 58.9171 47.5884 58.9171C47.3064 58.9171 47.0409 58.7346 47.0409 58.3862V50.0399H45.0331C44.6847 50.0399 44.5187 49.7744 44.5187 49.4923C44.5187 49.2102 44.6847 48.9282 45.0331 48.9282V48.9282ZM54.0431 58.3862V49.4591C54.0431 49.1107 54.3086 48.9448 54.5907 48.9448C54.8728 48.9448 55.1548 49.1107 55.1548 49.4591V53.2589H58.9214V49.4591C58.9214 49.1107 59.1869 48.9282 59.4524 48.9282C59.7179 48.9282 60 49.1107 60 49.4591V58.3862C60 58.7346 59.7179 58.9171 59.4524 58.9171C59.1869 58.9171 58.9214 58.7346 58.9214 58.3862V54.3872H55.1548V58.3862C55.1548 58.7346 54.8728 58.9171 54.5907 58.9171C54.3086 58.9171 54.0431 58.7346 54.0431 58.3862Z" fill="#F48322"/>
</svg>
